<?xml version="1.0" encoding="UTF-8" standalone="no"?>
<svg
   xmlns:dc="http://purl.org/dc/elements/1.1/"
   xmlns:cc="http://creativecommons.org/ns#"
   xmlns:rdf="http://www.w3.org/1999/02/22-rdf-syntax-ns#"
   xmlns:svg="http://www.w3.org/2000/svg"
   xmlns="http://www.w3.org/2000/svg"
   xmlns:xlink="http://www.w3.org/1999/xlink"
   xmlns:sodipodi="http://sodipodi.sourceforge.net/DTD/sodipodi-0.dtd"
   xmlns:inkscape="http://www.inkscape.org/namespaces/inkscape"
   inkscape:export-ydpi="604.7619"
   inkscape:export-xdpi="604.7619"
   inkscape:export-filename="C:\Users\Ivan Sokolov\Desktop\Logo2.png"
   sodipodi:docname="LogoSVGGradient-1.svg"
   inkscape:version="1.0 (4035a4fb49, 2020-05-01)"
   id="svg8"
   version="1.1"
   viewBox="0 0 458 79"
   height="79mm"
   width="458mm">
  <defs
     id="defs2">
    <linearGradient
       id="linearGradient947"
       inkscape:collect="always">
      <stop
         id="stop941"
         offset="0"
         style="stop-color:#12005e;stop-opacity:1" />
      <stop
         style="stop-color:#7e008c;stop-opacity:1"
         offset="0.67288023"
         id="stop943" />
      <stop
         id="stop949"
         offset="1"
         style="stop-color:#b64747;stop-opacity:1" />
    </linearGradient>
    <linearGradient
       id="linearGradient939"
       inkscape:collect="always">
      <stop
         id="stop933"
         offset="0"
         style="stop-color:#12005e;stop-opacity:1" />
      <stop
         style="stop-color:#7e008c;stop-opacity:1"
         offset="0.27232167"
         id="stop935" />
      <stop
         id="stop937"
         offset="1"
         style="stop-color:#e28a00;stop-opacity:1" />
    </linearGradient>
    <linearGradient
       id="linearGradient100"
       inkscape:collect="always">
      <stop
         id="stop94"
         offset="0"
         style="stop-color:#12005e;stop-opacity:1" />
      <stop
         style="stop-color:#7e008c;stop-opacity:1"
         offset="0.59105414"
         id="stop96" />
      <stop
         id="stop98"
         offset="1"
         style="stop-color:#f90303;stop-opacity:1" />
    </linearGradient>
    <linearGradient
       inkscape:collect="always"
       id="linearGradient2700">
      <stop
         style="stop-color:#12005e;stop-opacity:1"
         offset="0"
         id="stop2696" />
      <stop
         id="stop2704"
         offset="0.5"
         style="stop-color:#7e008c;stop-opacity:1" />
      <stop
         style="stop-color:#e25757;stop-opacity:1"
         offset="1"
         id="stop2698" />
    </linearGradient>
    <linearGradient
       inkscape:collect="always"
       id="linearGradient2676">
      <stop
         style="stop-color:#000000;stop-opacity:1;"
         offset="0"
         id="stop2672" />
      <stop
         style="stop-color:#000000;stop-opacity:0;"
         offset="1"
         id="stop2674" />
    </linearGradient>
    <linearGradient
       inkscape:collect="always"
       xlink:href="#linearGradient2676"
       id="linearGradient2678"
       x1="66.778565"
       y1="37.14379"
       x2="195.71508"
       y2="37.14379"
       gradientUnits="userSpaceOnUse" />
    <linearGradient
       inkscape:collect="always"
       xlink:href="#linearGradient2676"
       id="linearGradient2682"
       x1="276.70625"
       y1="36.448836"
       x2="404.64268"
       y2="36.448836"
       gradientUnits="userSpaceOnUse" />
    <linearGradient
       inkscape:collect="always"
       xlink:href="#linearGradient2700"
       id="linearGradient2702"
       x1="66.778565"
       y1="42.32816"
       x2="404.64268"
       y2="42.32816"
       gradientUnits="userSpaceOnUse" />
    <linearGradient
       inkscape:collect="always"
       xlink:href="#linearGradient100"
       id="linearGradient78"
       gradientUnits="userSpaceOnUse"
       x1="175.39507"
       y1="44.102337"
       x2="292.10501"
       y2="33.088627"
       spreadMethod="pad" />
    <linearGradient
       gradientTransform="translate(-13.418155,0.56696429)"
       inkscape:collect="always"
       xlink:href="#linearGradient2700"
       id="linearGradient925"
       gradientUnits="userSpaceOnUse"
       x1="308.3323"
       y1="45.206547"
       x2="339.97648"
       y2="45.206547" />
    <linearGradient
       gradientTransform="scale(3.7795276)"
       inkscape:collect="always"
       xlink:href="#linearGradient947"
       id="linearGradient927"
       gradientUnits="userSpaceOnUse"
       x1="282.00653"
       y1="53.687984"
       x2="319.59732"
       y2="25.901541" />
    <linearGradient
       gradientTransform="translate(-10.016369,0.1889881)"
       inkscape:collect="always"
       xlink:href="#linearGradient2700"
       id="linearGradient929"
       gradientUnits="userSpaceOnUse"
       x1="338.94147"
       y1="57.324471"
       x2="350.68896"
       y2="36.686958" />
    <linearGradient
       gradientTransform="translate(-17.386905,0.56696429)"
       inkscape:collect="always"
       xlink:href="#linearGradient939"
       id="linearGradient931"
       gradientUnits="userSpaceOnUse"
       x1="371.25223"
       y1="57.324471"
       x2="382.99976"
       y2="36.686958" />
    <linearGradient
       gradientTransform="translate(6.4255953,-0.1889881)"
       inkscape:collect="always"
       xlink:href="#linearGradient2700"
       id="linearGradient951"
       gradientUnits="userSpaceOnUse"
       x1="238.95041"
       y1="64.511528"
       x2="267.40103"
       y2="18.006632" />
    <linearGradient
       inkscape:collect="always"
       xlink:href="#linearGradient2700"
       id="linearGradient953"
       gradientUnits="userSpaceOnUse"
       x1="158.99089"
       y1="46.642337"
       x2="162.30638"
       y2="29.804358" />
    <linearGradient
       gradientTransform="translate(2.4568452)"
       inkscape:collect="always"
       xlink:href="#linearGradient2700"
       id="linearGradient955"
       gradientUnits="userSpaceOnUse"
       x1="126.11393"
       y1="46.642337"
       x2="136.91298"
       y2="29.537088" />
    <linearGradient
       gradientTransform="translate(1.7008929,1.5119048)"
       inkscape:collect="always"
       xlink:href="#linearGradient2700"
       id="linearGradient957"
       gradientUnits="userSpaceOnUse"
       x1="98.404628"
       y1="44.128794"
       x2="129.99588"
       y2="37.963997" />
    <linearGradient
       gradientTransform="translate(13.901275,-1.4011981)"
       inkscape:collect="always"
       xlink:href="#linearGradient2700"
       id="linearGradient959"
       gradientUnits="userSpaceOnUse"
       x1="66.778565"
       y1="37.143789"
       x2="112.00756"
       y2="22.087112" />
    <linearGradient
       y2="42.32816"
       x2="404.64268"
       y1="42.32816"
       x1="66.778565"
       gradientUnits="userSpaceOnUse"
       id="linearGradient915"
       xlink:href="#linearGradient2700"
       inkscape:collect="always" />
    <meshgradient
       y="12.608677"
       x="90.129242"
       gradientUnits="userSpaceOnUse"
       id="meshgradient933"
       inkscape:collect="always">
      <meshrow
         id="meshrow935">
        <meshpatch
           id="meshpatch937">
          <stop
             id="stop939"
             style="stop-color:#ffffff;stop-opacity:1"
             path="c 99.0421,0  198.084,0  297.126,0" />
          <stop
             id="stop942"
             style="stop-color:#12005e;stop-opacity:1"
             path="c 0,19.687  0,39.374  0,59.061" />
          <stop
             id="stop944"
             style="stop-color:#ffffff;stop-opacity:1"
             path="c -99.0421,0  -198.084,0  -297.126,0" />
          <stop
             id="stop946"
             style="stop-color:#12005e;stop-opacity:1"
             path="c 0,-19.687  0,-39.374  0,-59.061" />
        </meshpatch>
      </meshrow>
    </meshgradient>
  </defs>
  <sodipodi:namedview
     inkscape:guide-bbox="true"
     showguides="true"
     width="298mm"
     inkscape:document-rotation="0"
     inkscape:window-maximized="1"
     inkscape:window-y="-8"
     inkscape:window-x="-8"
     inkscape:window-height="1137"
     inkscape:window-width="1920"
     showgrid="false"
     inkscape:current-layer="g76"
     inkscape:document-units="mm"
     inkscape:cy="235.73291"
     inkscape:cx="843.54961"
     inkscape:zoom="0.7"
     inkscape:pageshadow="2"
     inkscape:pageopacity="0.0"
     borderopacity="1.0"
     bordercolor="#666666"
     pagecolor="#ffffff"
     id="base">
    <sodipodi:guide
       id="guide873"
       orientation="0,-1"
       position="200.70536,114.75" />
    <sodipodi:guide
       id="guide913"
       orientation="0,-1"
       position="109.42411,14.177083" />
  </sodipodi:namedview>
  <metadata
     id="metadata5">
    <rdf:RDF>
      <cc:Work
         rdf:about="">
        <dc:format>image/svg+xml</dc:format>
        <dc:type
           rdf:resource="http://purl.org/dc/dcmitype/StillImage" />
        <dc:title></dc:title>
      </cc:Work>
    </rdf:RDF>
  </metadata>
  <g
     inkscape:label="Layer 2"
     id="layer2"
     inkscape:groupmode="layer">
    <g
       id="g2694"
       style="fill:url(#linearGradient2702);fill-opacity:1">
      <g
         id="g76"
         style="fill:url(#linearGradient78);fill-opacity:1">
        <g
           transform="translate(9.4494048)"
           aria-label="Free"
           id="text853"
           style="font-style:normal;font-weight:normal;font-size:52.9167px;line-height:0.95;font-family:sans-serif;letter-spacing:-4.96623px;word-spacing:0px;fill:url(#linearGradient915);fill-opacity:1;fill-rule:nonzero;stroke:none;stroke-width:0.264583;image-rendering:auto" />
        <g
           style="stroke:url(#meshgradient933)"
           id="g931">
          <path
             style="opacity:1;fill:url(#linearGradient951);fill-opacity:1;fill-rule:nonzero;stroke:#ffb52b;stroke-width:0;stroke-miterlimit:4;stroke-dasharray:none;stroke-opacity:1"
             d="m 230.30623,70.538322 c -1.37548,-2.71185 -0.74123,-5.00918 0.0852,-6.7548 0.56836,-0.56021 0.42565,-1.67208 0.25189,-2.05865 -0.24212,-0.53166 -0.65778,-1.372059 -0.45878,-2.967249 0.0302,-0.081 0.18964,-0.83308 0.53165,-1.45206 0.34201,-0.61899 1.0336,-0.70346 1.84352,-0.67305 0.65279,0.0965 1.12927,-0.0764 1.33147,-0.19779 0.32845,-0.0696 0.4086,-0.10264 0.83994,-0.06 0.33428,0.033 0.51386,-0.12135 0.74809,-0.23802 0.42501,-0.2117 0.63235,-0.42845 1.16246,-0.82324 0.32981,-0.23776 0.87034,-0.74138 1.10966,-1.07006 1.57606,-2.16462 2.56288,-3.510018 4.31901,-4.485231 0.47561,-0.264116 0.61642,-0.456364 0.82807,-0.759586 0.23458,-0.336066 0.35829,-0.737274 0.61962,-1.047605 0.14216,-0.168798 0.30542,-0.310874 0.50417,-0.429086 0.19874,-0.118212 0.34843,-0.270895 0.34843,-0.391048 0,-0.05535 -0.17777,-0.247265 -0.31787,-0.330023 -0.31597,-0.262658 -0.22998,-0.222304 -0.29463,-0.364546 -0.0933,-0.205379 -0.13646,-0.4419 -0.11676,-0.666632 0.0405,-0.461561 0.22852,-0.913817 0.47438,-1.306541 0.15367,-0.245456 0.4541,-0.376313 0.60505,-0.623458 0.0994,-0.162775 0.13271,-0.358141 0.18332,-0.542034 0.0508,-0.184546 0.0602,-0.379756 0.1203,-0.561484 0.053,-0.160294 0.14338,-0.305778 0.2101,-0.460866 0.0456,-0.106119 0.10825,-0.207784 0.13011,-0.321221 0.0583,-0.302336 0.0967,-0.632652 -0.004,-0.923679 -0.0833,-0.24127 -0.22148,-0.546537 -0.47007,-0.604515 -0.50776,-0.118421 -0.90916,0.528791 -1.40734,0.682609 -0.12943,0.03995 -0.26725,0.04559 -0.40198,0.05965 -0.1671,0.01746 -0.33532,0.02196 -0.50311,0.03055 -0.11162,0.0057 -0.22328,0.01113 -0.33501,0.01399 -0.29161,0.0075 -0.58385,-0.0089 -0.87506,0.0081 -0.55184,0.03202 -1.10049,0.107059 -1.64886,0.176645 -0.32099,0.04071 -0.6522,0.04245 -0.9604,0.140941 -0.16137,0.05158 -0.29136,0.179051 -0.45245,0.231556 -0.4128,0.134554 -0.87397,0.0684 -1.28647,0.203864 -0.21108,0.06932 -0.37825,0.24559 -0.59198,0.306256 -0.29838,0.08469 -0.47218,0.04904 -0.92785,0.07039 l -0.46869,-0.335729 c -0.38298,0.06625 -2.62647,0.449385 -3.09882,0.770484 -0.69459,0.472175 -1.99766,0.413301 -2.36533,0.360705 -0.36768,-0.0526 -1.25142,-0.193917 -1.85339,-0.617019 -0.60198,-0.423102 -0.60656,-0.560693 -0.91803,-0.831814 -0.4674,-0.406851 -0.89905,-0.866702 -1.42624,-1.192382 -1.42016,-0.877316 -3.47684,-1.605731 -4.59199,-1.998137 -0.63847,-0.224665 -2.01646,-0.70517 -2.38214,-0.816772 -0.3788,-0.11561 -0.52086,0.236326 -0.74783,0.321261 -0.34163,0.127846 -0.73443,-0.07114 -1.09426,-0.01127 -1.13235,0.188386 -2.21123,0.652793 -3.24659,1.148522 -0.44038,0.210853 -0.85758,0.474121 -1.24641,0.769433 -0.67849,0.515313 -1.15717,1.224486 -1.87709,1.734851 -0.47712,0.338236 -1.03013,0.668427 -1.6147,0.686436 -0.34148,0.01052 -0.71965,-0.105563 -0.96611,-0.342151 -0.45981,-0.441402 -0.73834,-1.195433 -0.71144,-1.774898 0.20152,-1.980887 0.59871,-4.059912 2.79153,-5.219379 0.54107,-0.339395 0.8637,-0.661773 1.13398,-0.898925 0.45205,-0.539463 0.50729,-1.238164 0.68895,-1.610338 0.48153,-0.931194 1.53093,-1.974049 2.56579,-2.040151 0.38928,-0.01597 0.81536,0.218305 1.11782,0.481909 0.28385,0.247388 0.67437,0.475384 0.97768,0.753345 0.12308,0.112778 0.20756,0.265711 0.33905,0.368555 0.27944,0.218575 0.69414,0.249105 0.93377,0.510712 0.13892,0.151648 0.11887,0.404707 0.24756,0.565118 0.13116,0.163483 0.29797,0.374522 0.50753,0.371168 0.75398,0.146215 0.44567,0.511059 2.01321,0.757485 1.58994,0.291394 2.8756,0.439536 3.58881,0.506493 1.5423,0.144797 2.83345,0.476305 4.02281,1.074712 0.51828,0.312596 1.18309,0.826257 1.82842,1.142569 0.39722,0.194698 0.80528,0.413199 1.24529,0.458747 0.41257,0.04272 0.68434,-0.168562 1.23094,-0.181853 0.2643,-0.0064 0.62606,-0.225734 0.72172,-0.328851 0,0 0.20889,-0.594355 0.25099,-0.622429 0.28215,-0.188142 0.70644,-0.260642 1.05138,-0.410993 0.25488,-0.111099 0.54295,-0.299423 0.75129,-0.362395 0.20834,-0.06297 0.43196,-0.325477 0.60231,-0.383334 0.37175,-0.181724 0.71286,-0.0043 1.06778,-0.111195 0.37191,-0.128977 0.55699,-0.765152 1.01431,-0.604727 0.55814,-0.176826 1.07384,-0.630358 1.34385,-0.826288 0.18743,-0.1206 0.77359,-0.151559 1.1298,-0.312079 0.38915,-0.17537 0.69244,-0.505572 1.07302,-0.698833 1.33982,-0.680356 2.28891,-0.987441 4.21509,-1.598436 0.33623,0.01697 0.4264,-0.01714 0.68207,-0.258071 0.16205,-0.152698 0.38932,-0.290185 0.50507,-0.305526 0.15769,-0.0209 0.20306,-0.07009 0.18098,-0.19625 -0.0162,-0.09259 -0.073,-0.195345 -0.12626,-0.228334 -0.0641,-0.03969 -0.10649,-0.499686 -0.12543,-1.360246 -0.0314,-1.42853 0.0264,-1.679978 0.50638,-2.199396 0.72337,-0.782887 0.90312,-1.008689 0.94924,-1.192471 0.18159,-0.323619 0.6435,-0.87887 1.09638,-1.188298 0.18411,-0.1258 0.67187,-0.561435 1.08391,-0.968079 0.67487,-0.666045 0.75329,-0.776079 0.7909,-1.109763 0.0309,-0.273932 -0.001,-0.443121 -0.12421,-0.649572 -0.0913,-0.15354 -0.25417,-0.52538 -0.36198,-0.826315 -0.10781,-0.300934 -0.26505,-0.637489 -0.34943,-0.747902 -0.23205,-0.303692 -0.19506,-0.781611 0.10021,-1.294672 0.32102,-0.557792 0.40405,-0.657769 0.71443,-0.860203 0.5229,-0.341028 2.05956,-1.137671 2.19476,-1.137812 0.13404,-1.18e-4 1.20321,-0.552922 1.38148,-0.71425 0.0933,-0.08444 0.16965,-0.20193 0.16965,-0.261082 0,-0.05915 0.0758,-0.131591 0.16836,-0.16098 0.0926,-0.02939 0.16835,-0.10183 0.16835,-0.160981 0,-0.05916 0.0758,-0.176108 0.16836,-0.259906 0.0926,-0.0838 0.16836,-0.198198 0.16836,-0.254226 0,-0.05603 0.0757,-0.19818 0.16834,-0.315895 0.0926,-0.117715 0.16836,-0.259148 0.16836,-0.314295 0,-0.23047 0.52024,-1.281192 0.65692,-1.326749 0.13817,-0.04606 0.15595,0.478741 0.0332,0.978594 -0.11161,0.454286 -0.0714,0.678102 0.0749,0.416702 0.0435,-0.07758 0.26752,-0.361359 0.498,-0.630628 0.23049,-0.269269 0.41941,-0.551451 0.41982,-0.627072 7.5e-4,-0.117029 0.22013,-0.236105 0.44268,-0.240156 0.13132,-0.0024 0.0546,0.288728 -0.17466,0.662958 -0.22259,0.36331 -0.43563,0.868336 -0.43563,1.032713 0,0.107547 0.31155,-0.08613 0.93533,-0.581472 0.53652,-0.426055 0.91657,-0.563025 0.91657,-0.330338 0,0.06138 -0.0989,0.203425 -0.2198,0.315665 -0.39493,0.36668 -1.00793,1.209193 -0.82818,1.138266 0.0903,-0.03562 0.27352,-0.07932 0.40723,-0.09711 0.13371,-0.01779 0.30666,-0.08985 0.38432,-0.160139 0.18035,-0.163218 0.64051,-0.257441 0.7098,-0.145339 0.0519,0.08399 -0.67825,0.77153 -0.82049,0.772596 -0.0399,3.54e-4 -0.25918,0.156847 -0.48735,0.347885 -0.41563,0.347982 -0.70678,0.772689 -0.62283,0.908523 0.0247,0.03983 0.35762,0.05415 0.73999,0.0318 0.52632,-0.03076 0.73433,-0.01102 0.85621,0.08127 0.27392,0.207427 0.11313,0.39712 -0.34774,0.41025 -0.7604,0.02166 -1.06281,0.06729 -1.35026,0.203689 -0.21343,0.10128 -0.54867,0.138001 -1.29454,0.141798 l -1.00654,0.0052 -0.45249,0.324024 c -0.24887,0.178214 -0.46987,0.324024 -0.49112,0.324024 -0.0212,0 -0.27219,0.23068 -0.55766,0.512624 -0.50792,0.50166 -0.51704,0.518619 -0.42651,0.79295 0.10812,0.327593 0.84078,1.113823 0.99117,1.03628 0.34085,-0.175752 1.13284,-0.230595 1.63779,-0.495904 0.40768,-0.214202 1.303,-0.720771 1.89971,-0.459294 0.38039,0.166684 1.05301,0.339214 1.21241,0.357823 0.12357,0.01443 0.35441,0.150774 0.59629,-0.03384 0.36776,-0.426119 0.60849,-0.850935 1.16364,-1.226621 0.89187,-0.603537 2.20457,-0.722824 3.18509,-0.540592 0.67536,0.128857 1.31279,0.514039 1.81024,0.988646 0.51349,0.489913 0.91303,1.135973 1.10718,1.818614 0.11955,0.420353 0.08,0.879719 0.01,1.311033 -0.0659,0.403369 -0.39836,1.159602 -0.39836,1.159602 0,0 0.7719,0.04397 0.80051,-0.0023 0.25019,-0.126705 0.54405,0.07816 0.77864,0.09381 0.30142,0.01454 0.59409,-0.114107 0.89508,-0.13578 0.31487,-0.02267 0.63155,0.01785 0.94704,0.0064 0.31678,-0.01146 0.71295,-0.199643 0.94799,-0.07518 0.44466,0.235471 0.31306,0.444962 0.53654,0.456661 0.39282,0.02057 0.57546,0.02816 0.86341,0.0275 0.50114,-0.0012 1.00196,-0.02872 1.50243,-0.05479 0.34053,-0.01774 0.68102,-0.03859 1.02065,-0.06912 0.5757,-0.05175 1.5397,-0.07493 1.7233,-0.193249 0.42286,-0.272526 0.57689,-0.530212 0.88513,-0.771358 0.71843,-0.562056 1.54065,-1.101284 2.24149,-1.569759 1.06685,-0.718061 2.27684,-2.09238 1.84216,-2.09238 -0.0463,0 -0.0842,-0.05022 -0.0842,-0.111593 0,-0.06137 -0.0947,-0.200558 -0.21044,-0.309294 -0.11574,-0.108734 -0.21044,-0.247917 -0.21044,-0.309294 0,-0.06137 -0.0331,-0.111592 -0.0734,-0.111592 -0.0404,0 -0.0969,-0.14664 -0.12553,-0.325866 -0.0286,-0.179226 -0.12737,-0.491735 -0.21934,-0.694463 -0.21508,-0.474003 -0.23855,-1.336635 -0.0364,-1.336635 0.16734,0 0.59638,0.449762 0.66657,0.698749 0.0744,0.263845 0.3214,0.732265 0.38617,0.732265 0.22226,0 0.50993,-0.68748 0.50317,-1.450551 0.0531,-0.395645 0.0564,-0.891736 0.0991,-1.274578 0.0443,-0.413921 0.15015,-0.554134 0.42002,-0.556496 0.12535,-10e-4 0.14731,0.08045 0.14731,0.547007 0,0.301561 0.0433,0.615841 0.0622,0.704984 0.0271,0.127741 0.0837,0.251686 0.10989,0.335641 0.0822,0.263542 0.23823,0.12724 0.30136,-0.347306 0.008,-0.339434 0.10966,-0.665426 0.14061,-0.953212 0.0541,-0.524732 0.25286,-0.856848 0.5229,-0.818215 0.15927,0.02279 0.0665,0.455775 0.052,1.061164 -0.0108,0.452404 -0.0427,1.099814 0.0219,1.078282 0.19301,0.03487 0.23686,-0.543539 0.34303,-0.82022 0.0478,-0.124604 0.0931,-0.250335 0.13228,-0.377907 0.0551,-0.179414 0.0521,-0.380935 0.14461,-0.544206 0.0855,-0.150688 0.1779,-0.372364 0.36252,-0.372364 0.13342,0 0.16358,0.05924 0.16358,0.321249 0,0.407079 -0.14379,1.202675 -0.3107,1.719089 -0.0709,0.219383 -0.10478,0.461807 -0.0753,0.538716 0.0474,0.12352 0.078,0.117009 0.26191,-0.0558 0.11454,-0.1076 0.20824,-0.226914 0.20824,-0.26514 0,-0.03823 0.0594,-0.135794 0.13192,-0.216815 0.0725,-0.08102 0.24498,-0.310696 0.38318,-0.510391 0.16185,-0.233854 0.30214,-0.352634 0.3942,-0.33373 0.2435,0.05 0.12961,0.571209 -0.3161,1.44664 -0.22645,0.444793 -0.43584,0.931539 -0.46528,1.081659 -0.0294,0.150119 -0.0872,0.348703 -0.12844,0.441299 -0.0412,0.09259 -0.11743,0.386163 -0.16941,0.652373 -0.052,0.266211 -0.12972,0.484019 -0.17274,0.484019 -0.043,0 -0.0782,0.04915 -0.0782,0.109236 0,0.162858 -0.61452,0.979723 -0.73919,0.98259 -0.0593,0.0013 -0.13138,0.06877 -0.1601,0.149789 -0.0288,0.08102 -0.0984,0.20413 -0.15481,0.273576 -0.0883,0.108748 -0.28374,0.443359 -0.66364,1.136393 -0.96266,1.405851 -2.44717,3.412907 -3.72761,4.375832 -0.69628,0.647583 -1.23847,0.803817 -1.68002,0.924473 -1.02315,0.266941 -1.56655,0.301495 -2.33789,0.362983 -0.20719,0.13153 -1.96811,0.294416 -3.5377,0.32724 -1.08004,0.02259 -1.45717,0.05871 -1.5313,0.120232 -0.0634,0.0526 -0.12904,0.186771 -0.32595,0.491058 -0.57732,0.89217 -0.9641,1.047104 -1.84716,0.985747 -0.59204,-0.04114 -0.81504,-0.02491 -1.00252,0.07296 -0.13261,0.06923 -0.28903,0.125868 -0.34758,0.125868 -0.12113,0 -1.07282,0.420472 -1.13695,0.502322 -0.0232,0.02954 -0.18214,0.138804 -0.35332,0.242798 -0.2496,0.151642 -0.39545,0.360669 -0.73655,1.055658 -0.23392,0.476617 -0.42532,0.961328 -0.42532,1.077132 0,0.23231 -0.43656,0.269373 -0.62145,0.444539 -0.18999,0.179993 -0.36396,0.457349 -0.4906,0.612984 -0.1437,0.176949 -0.25735,0.358273 -0.40583,0.520699 -0.31661,0.346373 -0.70301,0.602305 -1.02837,0.961457 -0.14298,0.482614 -0.50277,0.573011 -0.85135,0.683146 -0.29339,0.137147 -0.54732,0.43799 -0.79277,0.620658 -0.20551,0.152954 -0.50724,0.349499 -0.56457,0.349499 -0.0264,0 -0.23338,0.14205 -0.45982,0.315662 -0.22643,0.173617 -0.61425,0.396037 -0.8794,0.644616 -0.47659,0.4468 -0.92247,0.94223 -1.25813,1.50269 -0.0581,0.09701 -0.0968,0.205655 -0.1265,0.31475 -0.0448,0.164294 0.0166,0.362461 -0.0764,0.505121 -0.12471,0.191331 -0.38251,0.249889 -0.57849,0.367161 -0.23018,0.137744 -0.5807,0.155253 -0.7012,0.394919 -0.12436,0.247314 0.16137,0.55295 0.10445,0.823853 -0.0686,0.326727 -0.37295,0.556874 -0.51524,0.858899 -0.2493,0.529165 -0.3894,1.103188 -0.58556,1.654263 -0.29981,0.842222 -0.53757,2.12075 -0.90392,2.525071 -0.29231,0.432026 -0.43824,0.767465 -1.04926,0.783508 -1.18085,0.277304 -0.65645,0.931875 -0.7323,1.04431 -0.09,0.114425 -0.25116,0.652687 -0.4858,0.822771 -0.35032,0.253923 -0.34513,0.639266 -0.62844,0.847754 -0.14373,0.105767 -0.32909,0.149101 -0.50542,0.176472 -0.0971,0.01506 -0.29456,-0.0082 -0.29456,-0.0082 0,0 -0.33393,0.314438 -0.48494,0.486576 -0.77715,0.885863 -0.44661,1.139266 -2.15783,2.800399 -1.06659,1.03539 -3.11419,1.76867 -3.86418,2.22599 -2.29509,1.39951 -2.30332,1.92674 -4.67996,3.78363 0,0 0.12743,1.00588 -0.055,1.45598 -0.0697,0.17201 -0.30582,0.34016 -0.37243,0.41399 -0.24988,-0.18505 -1.00023,1.781809 -1.43067,2.707309 -0.28155,0.60534 -0.59795,1.20682 -0.7513,1.85659 -0.1261,0.53433 -0.0756,1.20983 -0.12996,1.64188 -0.153,1.21641 -1.06521,2.85199 -1.475,3.70332 -0.68586,1.42482 -3.16326,1.08948 -3.81923,-0.20382 z"
             id="path892"
             inkscape:connector-curvature="0"
             sodipodi:nodetypes="sccczcccacsssazscaaaaaaaaaaaaaaaaaaaaccszzaasssaaasaacccccsaaaaccscaasssacccccaacscccsscccccccscccscscscscccscccssscssccccccsscccsscccssccscaaacccaassaaacacsscssscscscccssccccccaaasssccssccscccsscccccccsccccscccsacacccssaaaaaaaaacccsaacasscacaassss" />
          <path
             transform="translate(9.4494048)"
             id="path860"
             style="fill:url(#linearGradient959);fill-opacity:1;font-style:normal;font-weight:normal;font-size:52.9167px;line-height:0.95;font-family:sans-serif;letter-spacing:-26.4583px;word-spacing:0px;fill-rule:nonzero;stroke:none;stroke-width:0.264583;image-rendering:auto"
             d="m 96.078599,32.85863 q 1.164167,-0.264583 1.587501,-0.264583 0.211667,0 0.211667,0.211667 0,0.370417 -3.333752,7.143754 l -3.333752,6.879171 -2.063751,1.375834 q -3.598336,2.381251 -6.402921,7.620005 -1.058334,2.063751 -1.640418,2.063751 -0.635,0 -0.3175,-0.582084 0.370417,-0.582084 5.715004,-12.170841 l 5.45042,-11.588756 1.428751,-0.211667 q 1.481667,-0.211667 2.698751,-0.476251 z M 128.51653,14.179036 q 0.21167,-0.582084 2.11667,-0.582084 h 1.95792 l -0.26459,1.217084 q -0.21166,1.375834 -0.47625,2.698752 l -0.3175,1.428751 -11.16542,0.529167 q -11.80043,0.635 -13.22918,0.740834 l -2.16958,0.211666 -1.32292,2.857502 q -1.21708,2.434168 -1.21708,3.016252 h 0.3175 q 0.9525,0 6.87917,-0.3175 5.97959,-0.317501 6.82625,-0.317501 h 0.26459 q 0.10583,0.105834 -1.21709,1.852085 -1.11125,1.481667 -1.11125,1.905001 0,0.105833 0.21167,0.423334 0.47625,0.529167 -0.26458,1.11125 -0.47626,0.370417 -2.11667,0.476251 -1.5875,0.105833 -7.83167,0.264583 -8.942921,0.211667 -10.477506,0.423334 -1.164167,0.15875 -1.164167,-0.264584 0,-0.423333 -0.899584,-1.322917 l -0.846667,-0.899584 1.270001,-0.05292 q 0.47625,0 2.540001,0.105834 2.063752,0.05292 3.016252,0.05292 2.010835,0 2.010835,-0.264583 0,-0.264584 -4.709586,-0.423334 -4.709587,-0.15875 -4.709587,-0.3175 0,-0.105833 0.211667,-0.264584 0.211667,-0.211666 0.635001,-0.423333 0.423333,-0.264584 0.899583,-0.423334 1.852085,-0.740833 3.122086,-0.740833 0.105833,0 0.423333,0.05292 0.3175,0 0.529167,0 l 2.116668,0.105834 -1.534584,-0.317501 q -0.423334,-0.05292 -0.793751,-0.15875 -0.3175,-0.15875 -0.529167,-0.264583 -0.15875,-0.105834 -0.105833,-0.15875 0.846667,-1.746251 2.910418,-5.344587 l 2.75167,-5.185836 7.35541,-0.211667 q 14.8696,-0.423334 17.4096,-0.582084 2.54,-0.15875 2.69875,-0.635 z" />
          <path
             transform="translate(9.4494048)"
             id="path862"
             style="fill:url(#linearGradient957);fill-opacity:1;font-style:normal;font-weight:normal;font-size:52.9167px;line-height:0.95;font-family:sans-serif;letter-spacing:-10.0145px;word-spacing:0px;fill-rule:nonzero;stroke:none;stroke-width:0.264583;image-rendering:auto"
             d="m 120.16093,48.895075 q 0.3175,0 0.3175,-0.317501 0,-0.3175 -0.10584,-0.3175 -0.21166,0 -0.37041,0.370417 0,0.211667 0.15875,0.264584 z m 0.79375,-9.94834 q -0.79375,-0.264583 -5.45042,-0.264583 h -1.5875 q -2.80459,0 -3.43959,0.3175 -0.635,0.3175 -0.68792,1.640418 v 0.3175 q 0,0.47625 0.15875,0.635 0.15875,0.105834 0.68792,0.211667 h 0.10583 q 1.21709,0 5.71501,-1.217084 4.55083,-1.270001 4.55083,-1.587501 0,-0.05292 -0.0529,-0.05292 z m -13.59959,-2.487084 0.635,-1.428751 2.32833,0.211666 q 14.55209,1.164168 18.57376,1.164168 0.84667,0 1.85209,1.481667 0.9525,1.428751 0.9525,1.587501 l -7.03792,2.434168 q -7.03792,2.328335 -7.03792,2.540002 0,0.15875 5.60917,2.328335 l 5.66208,2.222501 -3.81,3.810002 -2.38125,-0.687917 q -2.80459,-0.846667 -2.80459,-1.164167 0,-0.105833 0.58209,-0.105833 3.4925,-0.211667 3.4925,-0.529167 0,-0.105834 -2.2225,-0.105834 -2.43417,0 -2.75167,0.3175 -0.42333,0.423334 -0.58208,0 -0.15875,-0.3175 -0.79375,-0.3175 -0.52917,0 -3.01626,-0.9525 -2.43416,-0.952501 -4.49792,-1.957918 -1.79916,-0.952501 -2.16958,-0.952501 -0.10583,0 -1.42875,2.487085 -1.27,2.434168 -2.59292,4.921253 l -1.27,2.487085 h -0.0529 q -0.26458,0 -1.37583,-1.375834 -1.11125,-1.322918 -1.11125,-1.799168 0,-0.846667 1.37584,-3.862919 3.80999,-7.990422 5.87375,-12.752924 z" />
          <path
             transform="translate(9.4494048)"
             id="path864"
             style="fill:url(#linearGradient955);fill-opacity:1;font-style:normal;font-weight:normal;font-size:52.9167px;line-height:0.95;font-family:sans-serif;letter-spacing:-10.0145px;word-spacing:0px;fill-rule:nonzero;stroke:none;stroke-width:0.264583;image-rendering:auto"
             d="m 144.60454,51.72234 q 0.37042,0.211667 0.58208,-0.05292 0.15875,-0.15875 -0.10583,-0.15875 -0.10583,0 -0.26458,0 -0.26459,0 -0.37042,0.05292 -0.0529,0.05292 0.15875,0.15875 z m -2.32833,0.423334 q 1.42875,0 1.42875,-0.317501 0,-0.3175 -1.42875,-0.3175 -1.48167,0 -1.48167,0.3175 0,0.317501 1.48167,0.317501 z m -2.91042,-0.370417 q -0.21167,-0.317501 -1.05834,-0.211667 -4.02167,0.264583 -4.39208,0.635 -0.10584,0.105834 -0.10584,0.15875 0,0.15875 1.42875,0.15875 h 1.37584 q 2.80458,-0.15875 2.80458,-0.635 0,-0.05292 -0.0529,-0.05292 0,0 0,-0.05292 z m 5.60917,-7.672922 q 0.37041,0 0.37041,-0.3175 0,-0.3175 -0.15875,-0.3175 -0.15875,0 -0.3175,0.370417 -0.10583,0.264583 0.10584,0.264583 z m -7.72584,0 q 0.37042,0 0.37042,-0.3175 0,-0.3175 -0.37042,-0.3175 -0.3175,0 -0.3175,0.3175 0,0.3175 0.3175,0.3175 z m 6.93209,-1.005417 q 0.15875,0 0.15875,-0.15875 0,-0.15875 -0.15875,-0.15875 -0.15875,0 -0.15875,0.15875 0,0.15875 0.15875,0.15875 z m -0.9525,0 q 0.58208,-0.211667 0,-0.211667 -0.15875,0 -0.47625,0 -1.00542,0 -1.95792,0.211667 -0.68792,0.211667 -0.21167,0.264584 h 0.74083 q 1.27001,0 1.90501,-0.264584 z m 11.95917,10.318756 q -0.15875,0 -11.37709,2.434168 -11.16542,2.434169 -11.21834,2.434169 -0.21167,0 -2.11667,-1.693335 -1.905,-1.693334 -1.905,-1.905001 0,-0.3175 2.91042,-4.497919 l 2.96333,-4.180419 h 1.32292 q 0.15875,0 0.74083,0 0.63501,-0.05292 1.05834,-0.05292 0.37042,0 1.16417,0.05292 0.84666,0 1.27,0 h 1.27 q 1.32292,0 1.32292,-0.211667 0,-0.105834 -0.15875,-0.264584 -0.42334,-0.423333 -2.27542,-0.423333 h -1.32292 -0.9525 q -2.43417,0 -2.43417,-0.15875 0,-0.423334 3.28084,-5.027087 l 3.4925,-4.921253 6.61459,0.211667 q 7.99042,0.211667 11.53584,0.370417 l 4.92125,0.211667 q -1.00542,1.375834 -2.06375,3.122085 h -4.86834 q -3.33375,0 -4.23333,0.105833 -0.84667,0.105834 -1.21709,0.529167 -0.42333,0.423334 -1.11125,0.582084 -0.635,0.105833 -2.80458,0.105833 h -3.33376 l -0.47625,0.952501 -0.52916,0.952501 h 6.985 2.43417 q 2.54,0 3.38667,0.105833 0.84666,0.105833 0.84666,0.47625 0,0.15875 -0.84666,1.587501 -0.635,1.058334 -1.74625,1.322918 -1.05834,0.211666 -8.62543,1.164167 -4.7625,0.582084 -5.45042,1.005417 -0.37041,0.211667 -1.00541,1.428751 -0.79375,1.428751 -0.79375,1.799168 0,0.105833 0.26458,0.105833 0.68792,0 9.52501,-1.428751 6.50875,-1.058334 7.09083,-1.058334 0.37042,0 0.42334,0.105834 0.10583,0.105833 0.10583,0.3175 0,0.423334 -0.9525,2.381251 -0.89958,1.957918 -1.11125,1.957918 z" />
          <path
             transform="translate(9.4494048)"
             id="path866"
             style="fill:url(#linearGradient953);fill-opacity:1;font-style:normal;font-weight:normal;font-size:52.9167px;line-height:0.95;font-family:Cyberpunk;letter-spacing:-4.96623px;word-spacing:0px;fill-rule:nonzero;stroke:none;stroke-width:0.264583;image-rendering:auto;font-variant:normal;font-stretch:normal;-inkscape-font-specification:Cyberpunk"
             d="m 170.79132,53.30984 c 0.24695,0.141111 0.44097,0.123471 0.58208,-0.05292 0.10583,-0.105833 0.0706,-0.15875 -0.10583,-0.15875 h -0.26458 c -0.17639,0 -0.29987,0.01764 -0.37042,0.05292 -0.0353,0.03528 0.0177,0.0882 0.15875,0.15875 z m 1.905,-1.164166 c 0.9525,0 1.42875,-0.105834 1.42875,-0.317501 0,-0.211667 -0.47625,-0.3175 -1.42875,-0.3175 -0.98778,0 -1.48167,0.105833 -1.48167,0.3175 0,0.211667 0.49389,0.317501 1.48167,0.317501 z m -6.08542,1.217083 c -0.20841,0.145884 -0.49389,-0.282223 -1.05834,-0.211667 -2.68111,0.176389 -4.14514,0.388055 -4.39208,0.635 -0.0706,0.07056 -0.10584,0.123473 -0.10584,0.15875 0,0.105833 0.47625,0.15875 1.42875,0.15875 h 1.37584 c 1.86972,-0.105833 2.80458,-0.3175 2.80458,-0.635 0,-0.03528 -0.0176,-0.05292 -0.0529,-0.05292 v -0.05292 z m 14.605,-15.081255 c 0.24694,0 0.37041,-0.105834 0.37041,-0.3175 0,-0.211667 -0.0529,-0.3175 -0.15875,-0.3175 -0.10583,0 -0.21166,0.123472 -0.3175,0.370417 -0.0705,0.176388 -0.0353,0.264583 0.10584,0.264583 z m -12.48834,15.345833 c 0.24695,0 0.37042,-0.105833 0.37042,-0.3175 0,-0.211667 -0.12347,-0.3175 -0.37042,-0.3175 -0.21166,0 -0.3175,0.105833 -0.3175,0.3175 0,0.211667 0.10584,0.3175 0.3175,0.3175 z m 14.34043,-15.822084 c 0.10583,0 0.15875,-0.05292 0.15875,-0.15875 0,-0.105833 -0.0529,-0.15875 -0.15875,-0.15875 -0.10584,0 -0.15875,0.05292 -0.15875,0.15875 0,0.105834 0.0529,0.15875 0.15875,0.15875 z m -3.59834,0.529167 c 0.38806,-0.141111 0.38806,-0.211667 0,-0.211667 h -0.47625 c -0.67028,0 -1.32292,0.07056 -1.95792,0.211667 -0.45861,0.141111 -0.52917,0.229306 -0.21167,0.264584 h 0.74084 c 0.84667,0 1.48167,-0.08819 1.905,-0.264584 z m 6.13834,15.081256 c -0.10583,0 -3.8982,0.811389 -11.37709,2.434168 -7.44361,1.622779 -11.18306,2.434169 -11.21834,2.434169 -0.14111,0 -0.84667,-0.564445 -2.11667,-1.693335 -1.27,-1.128889 -1.905,-1.76389 -1.905,-1.905001 0,-0.211667 0.97014,-1.710973 2.91042,-4.497919 0,0 3.92856,-5.629883 4.02166,-5.767919 0.0931,-0.138036 0.27786,-0.384314 0.46208,-0.633111 0.18422,-0.248797 0.57864,-0.795641 2.76585,-3.86481 l 3.4925,-4.921253 6.61459,0.211667 c 5.32695,0.141111 9.17223,0.264584 11.53584,0.370417 l 4.92125,0.211667 c -0.67028,0.917223 -1.3582,1.957918 -2.06375,3.122085 h -4.86834 c -2.2225,0 -3.63361,0.03528 -4.23333,0.105833 -0.56445,0.07056 -0.97014,0.246945 -1.21709,0.529167 -0.28222,0.282223 -0.65264,0.476251 -1.11125,0.582084 -0.42333,0.07055 -1.35819,0.105833 -2.80458,0.105833 h -3.33376 l -0.47625,0.952501 -0.52916,0.952501 h 6.985 2.43417 c 1.69333,0 2.82222,0.03528 3.38667,0.105833 0.56445,0.07055 0.84667,0.229305 0.84667,0.47625 0,0.105833 -0.28222,0.635 -0.84667,1.587501 -0.42333,0.705556 -1.00542,1.146529 -1.74625,1.322918 -0.70556,0.141111 -3.5807,0.529166 -8.62542,1.164167 -3.17501,0.388056 -4.99181,0.723195 -5.45042,1.005417 -0.24695,0.141111 -0.58209,0.617362 -1.00542,1.428751 -0.52917,0.952501 -0.79375,1.552223 -0.79375,1.799168 0,0.07056 0.0882,0.105833 0.26458,0.105833 0.45861,0 3.63362,-0.47625 9.52501,-1.428751 4.33917,-0.705556 6.70278,-1.058334 7.09083,-1.058334 0.24695,0 0.38806,0.03528 0.42334,0.105834 0.0705,0.07055 0.10583,0.176389 0.10583,0.3175 0,0.282223 -0.3175,1.075973 -0.9525,2.381251 -0.59972,1.305279 -0.97014,1.957918 -1.11125,1.957918 z"
             sodipodi:nodetypes="ccssccsssssscssscsccsssscssssssssssscssccscscsssczzccccccscccsccccssscccccsscscscs" />
          <g
             style="font-style:normal;font-weight:normal;font-size:52.9167px;line-height:1.25;font-family:sans-serif;letter-spacing:0px;word-spacing:0px;fill:url(#linearGradient2702);fill-opacity:1.0;fill-rule:nonzero;stroke:none;stroke-width:0.264583"
             id="text853-6"
             aria-label="Fall">
            <path
               id="path869"
               style="letter-spacing:-26.4583px;fill:url(#linearGradient927);fill-opacity:1;fill-rule:nonzero;stroke-width:0.999999"
               d="m 1234.6191,52.259766 c -4.8,0 -7.4666,0.732554 -8,2.199218 -0.3999,1.200004 -3.7992,2.000392 -10.1992,2.400391 -6.4,0.399999 -28.334,1.132553 -65.8008,2.199219 l -27.8007,0.800781 -5.3907,10.158203 c 1.2874,0.124793 2.5784,0.220784 3.9121,0.160156 1.1965,-0.05439 2.3817,-0.242272 3.5704,-0.355468 1.0701,-0.101906 2.4712,-0.26682 3.7246,-0.21875 0.4178,0.01602 5.0165,-0.391003 6.9018,0.843192 2.4224,1.585837 -6.1678,2.755709 -7.5014,2.678292 -4.2584,-0.247206 -8.1905,0.373741 -12.1563,-0.1875 l -3.4609,6.521484 c -5.2,9.066671 -8.8648,15.801171 -10.9981,20.201172 -0.1333,0.133334 0,0.332964 0.3985,0.599614 l 2,1 c 0.9333,0.26664 1.9333,0.46626 3,0.59961 l 5.8007,1.19921 -8,-0.39843 h -2 c -0.8,-0.13335 -1.3327,-0.20118 -1.5996,-0.20118 -3.2,0 -7.1341,0.93412 -11.8007,2.80079 -1.2001,0.39999 -2.5853,0.90386 -3.7637,1.4414 -1.1784,0.53755 -1.7233,0.81732 -2.2578,1.28516 -0.5346,0.46784 -0.9883,1.01656 -0.9883,1.2832 2.4841,1.82164 3.057,2.76075 3.9199,3.62109 l 2.127,2.75391 c 1.9036,2.3298 3.1621,4.54857 3.1621,5.61524 0,1.06667 1.467,1.39999 4.4004,1 3.8666,-0.53334 17.0682,-1.06628 39.6015,-1.59961 15.7334,-0.4 25.5996,-0.73336 29.5996,-1 4.1334,-0.26667 6.8,-0.86745 8,-1.80078 1.8667,-1.46667 2.2,-2.86589 1,-4.19922 -0.5331,-0.80001 -0.8007,-1.33488 -0.8007,-1.60157 0,-1.06666 1.4011,-3.46588 4.2011,-7.19921 3.3334,-4.40001 4.8665,-6.733322 4.5996,-7.000005 h -1 c -2.1333,0 -10.7341,0.399217 -25.8007,1.199219 -14.9334,0.800001 -23.6,1.201176 -26,1.201176 h -1.1993 c 0,-1.466669 1.533,-5.267057 4.5996,-11.400395 l 5,-10.800781 8.1993,-0.798828 c 3.6,-0.266665 20.2666,-1.200779 50,-2.800782 l 42.2011,-2 1.1993,-5.40039 c 0.02,-0.101275 0.038,-0.205243 0.058,-0.306641 -2.8702,-0.04065 -11.6864,0.145993 -11.9341,-1.774554 -0.1912,-1.482914 9.6955,-1.151388 12.4191,-1.247488 0.5358,-2.791056 0.8137,-3.987244 1.2572,-6.870536 l 1,-4.599609 z m -30.2109,11.484375 c 3.1652,-0.02591 7.0201,0.272909 5.25,2.042968 -1.2496,1.249592 -1.4019,0.78478 -3.1576,1.135936 -2.3223,0.464447 -14.2222,0.3148 -16.6498,0.3148 -7.4204,0 -5.2205,-3.924447 0.3799,-3.724074 l 10.5877,0.378807 c 0.039,0.0014 1.6907,-0.132893 3.5898,-0.148437 z m 16.4902,0.65625 c 1.7472,0.06092 4.0154,1.301506 2.2266,1.582031 -2.3714,0.371903 -8.7085,0.814823 -6.5397,-1.228795 0.5872,-0.596465 3.7307,-0.373543 4.3131,-0.353236 z m -110.8789,59.658199 c -1.0666,0 -3.0666,0.33334 -6,1 -3.0666,0.66667 -6.4678,1.26745 -10.2011,1.80079 l -5.4004,0.80078 -20.5996,43.79882 c -13.4667,29.20002 -20.6663,44.53334 -21.5996,46 -0.8001,1.46667 -0.4008,2.20118 1.1992,2.20118 1.4666,0 3.5345,-2.60078 6.2011,-7.80078 7.0667,-13.20001 15.1326,-22.80078 24.1993,-28.80079 l 7.8007,-5.19921 12.5997,-26 c 8.4,-17.06668 12.5996,-26.06667 12.5996,-27 0,-0.53332 -0.2655,-0.80079 -0.7989,-0.80079 z m -21.9824,24.125 c 0.9739,0.0169 2.0143,0.14329 2.3594,0.18164 1.4256,0.1584 2.8952,0.39183 4.293,0 0.6542,0 1.4897,1.07786 0,1.32618 -0.8389,0.1398 -6.9408,0.59289 -7.4493,0.2539 -2.2653,-1.51023 -0.8263,-1.78986 0.7969,-1.76172 z"
               transform="scale(0.26458333)"
               sodipodi:nodetypes="scscccssssscccccccccscsscccscccccsccscsccccccccscccsssssssssscsscccccsccccsssscsss" />
            <path
               id="path871"
               style="letter-spacing:-7.2734px;fill:url(#linearGradient925);fill-opacity:1;fill-rule:nonzero"
               d="m 311.37124,43.815596 q 0,-0.264584 -0.42333,-0.370417 -0.37042,-0.15875 -0.79375,-0.05292 -0.74084,0.264584 -0.26459,0.582084 0.21167,0.15875 0.635,0.15875 0.84667,0 0.84667,-0.3175 z m -5.18584,-0.529167 q 0,-0.105833 -0.3175,-0.105833 -0.3175,0 -0.3175,0.3175 0,0.423333 0.47625,0 0.15875,-0.105834 0.15875,-0.211667 z m 14.76376,-3.016252 0.3175,-1.693334 q 0,-0.105834 -0.37041,-0.105834 -0.635,0 -1.53459,0.264584 -0.89958,0.211667 -1.00542,0.423333 -0.26458,0.476251 -3.59833,0.476251 h -3.38667 l -0.47625,0.9525 -0.52917,0.952501 h 1.74625 q 1.37584,0 5.08001,0.211667 l 3.38667,0.211666 z m -14.86959,-2.804585 1.905,-2.698752 6.61459,0.158751 q 6.93209,0.211666 9.31334,0.370416 l 2.64583,0.211667 -0.15875,0.899584 q -0.26458,1.217084 -0.42333,2.592918 -0.21167,1.799168 -0.89959,2.381252 -0.74083,0.582083 -2.43416,5.715003 l -1.64042,5.080003 -1.48167,0.211667 q -1.53458,0.211667 -1.53458,0 0,-0.264583 0.635,-3.333752 0.68791,-3.122085 0.68791,-3.492502 0,-0.105833 -0.42333,-0.105833 -1.00542,0 -3.28083,0.264583 -3.54542,0.423334 -6.72042,0.582084 -2.27542,0.105833 -2.85751,0.264583 -0.58208,0.105834 -0.84666,0.635001 -0.26459,0.529167 -0.68792,0.687917 -0.37042,0.105833 -1.64042,0.105833 -2.01083,0 -2.38125,0.264584 -0.21167,0.15875 -0.21167,0.264583 0,0.3175 1.5875,0.3175 0.89959,0 1.48167,-0.05292 2.27542,-0.264584 2.38125,-0.846668 0.21167,-0.582083 0.79375,-0.635 0.26459,0.105833 0.3175,0.264584 0,0.15875 -2.11666,4.127502 l -2.11667,3.915836 -1.79917,0.687917 q -1.32292,0.47625 -1.74625,0.47625 -0.3175,0 -0.52917,-0.15875 -0.0529,-0.05292 -0.42333,-0.370417 -0.37042,-0.264583 -0.84667,-0.635 -0.42333,-0.3175 -0.79375,-0.635001 l -1.53458,-1.27 1.64041,-2.381252 q 1.64042,-2.381251 2.11667,-2.381251 0.26459,0 0.26459,-0.423334 0,-0.582084 2.16958,-3.810002 l 2.32834,-3.333752 1.5875,-0.15875 q 1.53458,-0.211667 1.74625,-0.582084 0.10583,-0.264583 -0.42334,-0.264583 l -0.74083,0.05292 q -1.32292,0.211667 -1.32292,0 0,-0.3175 1.79917,-2.963335 z" />
            <path
               id="path873"
               style="letter-spacing:-7.2734px;fill:url(#linearGradient929);fill-opacity:1;fill-rule:nonzero;stroke-width:0.264583"
               d="m 335.85709,34.864906 c -0.21166,0 -0.31728,0.07076 -0.31728,0.211876 0,0.105831 0.10562,0.582184 0.31728,1.428853 0.0705,0.352777 0.10594,0.634791 0.10594,0.846458 0,0.776113 -0.4056,2.78715 -1.21697,6.032709 -0.88197,3.563056 -1.60547,5.979683 -2.16991,7.249686 -0.42333,0.9525 -0.79353,1.428335 -1.11103,1.428335 -0.14113,0 -0.24681,-0.01743 -0.31729,-0.05271 -0.10584,-0.03527 -0.22942,-0.07066 -0.37052,-0.105939 h -0.26459 c -0.0705,0 -0.10594,0.01795 -0.10594,0.05323 0,0.03528 -0.14102,0.405487 -0.42322,1.111043 -0.20617,0.618469 -0.43178,1.29576 -0.6625,1.987992 0.60347,0.06109 1.23267,0.106453 1.84897,0.106453 0.15216,0 2.62649,0.179557 2.28825,0.517797 -0.24871,0.248703 -3.14839,0.184211 -4.35634,0.09819 -0.18468,0.696711 -0.28266,1.195618 -0.28266,1.470194 0,0.105831 0.0353,0.194022 0.10594,0.264584 0.38804,0.10583 2.89288,0.24684 7.51427,0.42323 4.86831,0.246943 7.56696,0.528957 8.09615,0.846457 0.59973,0.317503 2.29285,0.476459 5.07979,0.476459 2.92806,0 3.62984,-0.137427 6.38151,-0.278537 2.78696,-0.141113 2.68983,-0.363257 2.12288,-0.397909 -0.17608,-0.0107 0.27054,-0.0088 -3.50419,-0.0088 -2.46944,0 -2.01933,-0.320497 -2.72489,-0.426331 -0.70557,-0.07055 -1.35779,-0.264374 -1.9575,-0.581874 -0.84669,-0.529169 -1.32304,-0.934757 -1.42885,-1.21698 -0.10584,-0.282223 -0.75859,-0.511426 -1.95802,-0.687814 -1.16417,-0.141112 -3.63363,-0.300069 -7.40834,-0.476456 -3.175,-0.17639 -4.7625,-0.37021 -4.7625,-0.581877 0,-0.282223 0.88194,-2.928054 2.64584,-7.9375 0.9286,-2.585585 1.69558,-4.686559 2.31407,-6.341732 -0.44485,-0.03619 -0.95388,-0.132749 -1.21648,-0.395324 -0.0752,-0.07517 -0.37592,0.07517 -0.45114,0 -0.2745,-0.274505 1.15705,-0.276355 1.92754,-0.290423 0.44495,-1.178475 0.82156,-2.1508 1.07747,-2.762104 0.14105,-0.423333 0.21135,-0.670481 0.21135,-0.74104 0,-0.352779 -0.40561,-0.529166 -1.21698,-0.529166 -0.4939,0 -0.91744,0.01743 -1.27021,0.05271 -0.91723,0.07055 -1.42846,0.105937 -1.53427,0.105937 -0.45863,0 -0.68781,-0.123574 -0.68781,-0.37052 0,-0.352777 -0.10615,-0.529167 -0.31782,-0.529167 z m 10.90115,21.907709 c 0.24694,0.03528 0.38791,0.0881 0.42323,0.158644 -0.28223,0.07055 -0.54681,0.07055 -0.79375,0 -0.10583,-0.07055 0.0177,-0.123364 0.37052,-0.158644 z" />
            <path
               id="path875"
               style="font-style:normal;font-variant:normal;font-weight:normal;font-stretch:normal;font-size:52.9167px;font-family:Cyberpunk;-inkscape-font-specification:Cyberpunk;fill:url(#linearGradient931);fill-opacity:1;fill-rule:nonzero;stroke-width:0.264583"
               d="m 360.79723,35.242882 c -0.21166,0 -0.31728,0.07076 -0.31728,0.211876 0,0.105831 0.10562,0.582184 0.31728,1.428853 0.0705,0.352777 0.10594,0.634791 0.10594,0.846458 0,0.776113 -0.40558,2.78715 -1.21697,6.032709 -0.88197,3.563056 -1.60494,5.979684 -2.16938,7.249686 -0.42333,0.9525 -0.79406,1.428335 -1.11156,1.428335 -0.1411,0 -0.2467,-0.01743 -0.31729,-0.05271 -0.10583,-0.03527 -0.22942,-0.07066 -0.37052,-0.105939 h -0.26459 c -0.0705,0 -0.10594,0.01795 -0.10594,0.05323 0,0.03528 -0.14099,0.405487 -0.42322,1.111043 -0.24697,0.740834 -0.51152,1.534581 -0.79375,2.38125 -0.24694,0.881944 -0.37053,1.481873 -0.37053,1.799373 0,0.105831 0.0354,0.194022 0.10594,0.264584 0.38804,0.10583 2.89288,0.24684 7.51428,0.42323 4.86833,0.246944 7.56697,0.528958 8.09614,0.846458 0.59973,0.317502 2.29285,0.476459 5.07979,0.476459 2.92806,0 5.76823,-0.07076 8.5199,-0.211876 2.78693,-0.14111 4.1801,-0.299551 4.1801,-0.475938 0,-0.176395 -1.88693,-0.264583 -5.66166,-0.264583 -2.46946,0 -4.05696,-0.05333 -4.7625,-0.159166 -0.70557,-0.07055 -1.35829,-0.264374 -1.95802,-0.581874 -0.84667,-0.529169 -1.32303,-0.934757 -1.42886,-1.21698 -0.10583,-0.282223 -0.75856,-0.511426 -1.95802,-0.687814 -1.16417,-0.141112 -3.6336,-0.300069 -7.40834,-0.476456 -3.175,-0.17639 -4.7625,-0.37021 -4.7625,-0.581877 0,-0.282223 0.88194,-2.928054 2.64584,-7.9375 0.13216,-0.367945 0.23844,-0.658587 0.36433,-1.007692 -0.54539,0.02929 -1.15946,0.100637 -1.47693,0.135909 -0.094,0.01044 -0.41751,0.173159 -0.47231,0.11834 -0.10745,-0.107413 0.37357,-0.434938 0.43717,-0.449069 0.27437,-0.06097 0.99277,-0.357532 1.19269,-0.507461 0.0914,-0.06853 0.40889,0.01532 0.51988,0 0.02,-0.0028 0.0383,-0.0094 0.0579,-0.01292 1.44542,-3.996878 2.47351,-6.740239 3.02877,-8.066691 0.14105,-0.423333 0.21135,-0.670481 0.21135,-0.74104 0,-0.352779 -0.40558,-0.529166 -1.21698,-0.529166 -0.4939,0 -0.91691,0.01743 -1.26968,0.05271 -0.91723,0.07055 -1.42896,0.105937 -1.5348,0.105937 -0.4586,0 -0.68781,-0.123574 -0.68781,-0.37052 0,-0.352777 -0.10615,-0.529167 -0.31782,-0.529167 z m 9.0377,21.166151 c 0.76879,0.08253 1.20848,0.205989 1.31826,0.371036 -0.87858,0.165049 -1.70239,0.165049 -2.47116,0 -0.32946,-0.165042 0.0547,-0.288505 1.1529,-0.371036 z" />
          </g>
        </g>
      </g>
    </g>
  </g>
  <script
     id="mesh_polyfill"
     type="text/javascript">
!function(){const t=&quot;http://www.w3.org/2000/svg&quot;,e=&quot;http://www.w3.org/1999/xlink&quot;,s=&quot;http://www.w3.org/1999/xhtml&quot;,r=2;if(document.createElementNS(t,&quot;meshgradient&quot;).x)return;const n=(t,e,s,r)=&gt;{let n=new x(.5*(e.x+s.x),.5*(e.y+s.y)),o=new x(.5*(t.x+e.x),.5*(t.y+e.y)),i=new x(.5*(s.x+r.x),.5*(s.y+r.y)),a=new x(.5*(n.x+o.x),.5*(n.y+o.y)),h=new x(.5*(n.x+i.x),.5*(n.y+i.y)),l=new x(.5*(a.x+h.x),.5*(a.y+h.y));return[[t,o,a,l],[l,h,i,r]]},o=t=&gt;{let e=t[0].distSquared(t[1]),s=t[2].distSquared(t[3]),r=.25*t[0].distSquared(t[2]),n=.25*t[1].distSquared(t[3]),o=e&gt;s?e:s,i=r&gt;n?r:n;return 18*(o&gt;i?o:i)},i=(t,e)=&gt;Math.sqrt(t.distSquared(e)),a=(t,e)=&gt;t.scale(2/3).add(e.scale(1/3)),h=t=&gt;{let e,s,r,n,o,i,a,h=new g;return t.match(/(\w+\(\s*[^)]+\))+/g).forEach(t=&gt;{let l=t.match(/[\w.-]+/g),d=l.shift();switch(d){case&quot;translate&quot;:2===l.length?e=new g(1,0,0,1,l[0],l[1]):(console.error(&quot;mesh.js: translate does not have 2 arguments!&quot;),e=new g(1,0,0,1,0,0)),h=h.append(e);break;case&quot;scale&quot;:1===l.length?s=new g(l[0],0,0,l[0],0,0):2===l.length?s=new g(l[0],0,0,l[1],0,0):(console.error(&quot;mesh.js: scale does not have 1 or 2 arguments!&quot;),s=new g(1,0,0,1,0,0)),h=h.append(s);break;case&quot;rotate&quot;:if(3===l.length&amp;&amp;(e=new g(1,0,0,1,l[1],l[2]),h=h.append(e)),l[0]){r=l[0]*Math.PI/180;let t=Math.cos(r),e=Math.sin(r);Math.abs(t)&lt;1e-16&amp;&amp;(t=0),Math.abs(e)&lt;1e-16&amp;&amp;(e=0),a=new g(t,e,-e,t,0,0),h=h.append(a)}else console.error(&quot;math.js: No argument to rotate transform!&quot;);3===l.length&amp;&amp;(e=new g(1,0,0,1,-l[1],-l[2]),h=h.append(e));break;case&quot;skewX&quot;:l[0]?(r=l[0]*Math.PI/180,n=Math.tan(r),o=new g(1,0,n,1,0,0),h=h.append(o)):console.error(&quot;math.js: No argument to skewX transform!&quot;);break;case&quot;skewY&quot;:l[0]?(r=l[0]*Math.PI/180,n=Math.tan(r),i=new g(1,n,0,1,0,0),h=h.append(i)):console.error(&quot;math.js: No argument to skewY transform!&quot;);break;case&quot;matrix&quot;:6===l.length?h=h.append(new g(...l)):console.error(&quot;math.js: Incorrect number of arguments for matrix!&quot;);break;default:console.error(&quot;mesh.js: Unhandled transform type: &quot;+d)}}),h},l=t=&gt;{let e=[],s=t.split(/[ ,]+/);for(let t=0,r=s.length-1;t&lt;r;t+=2)e.push(new x(parseFloat(s[t]),parseFloat(s[t+1])));return e},d=(t,e)=&gt;{for(let s in e)t.setAttribute(s,e[s])},c=(t,e,s,r,n)=&gt;{let o,i,a=[0,0,0,0];for(let h=0;h&lt;3;++h)e[h]&lt;t[h]&amp;&amp;e[h]&lt;s[h]||t[h]&lt;e[h]&amp;&amp;s[h]&lt;e[h]?a[h]=0:(a[h]=.5*((e[h]-t[h])/r+(s[h]-e[h])/n),o=Math.abs(3*(e[h]-t[h])/r),i=Math.abs(3*(s[h]-e[h])/n),a[h]&gt;o?a[h]=o:a[h]&gt;i&amp;&amp;(a[h]=i));return a},u=[[1,0,0,0,0,0,0,0,0,0,0,0,0,0,0,0],[0,0,0,0,1,0,0,0,0,0,0,0,0,0,0,0],[-3,3,0,0,-2,-1,0,0,0,0,0,0,0,0,0,0],[2,-2,0,0,1,1,0,0,0,0,0,0,0,0,0,0],[0,0,0,0,0,0,0,0,1,0,0,0,0,0,0,0],[0,0,0,0,0,0,0,0,0,0,0,0,1,0,0,0],[0,0,0,0,0,0,0,0,-3,3,0,0,-2,-1,0,0],[0,0,0,0,0,0,0,0,2,-2,0,0,1,1,0,0],[-3,0,3,0,0,0,0,0,-2,0,-1,0,0,0,0,0],[0,0,0,0,-3,0,3,0,0,0,0,0,-2,0,-1,0],[9,-9,-9,9,6,3,-6,-3,6,-6,3,-3,4,2,2,1],[-6,6,6,-6,-3,-3,3,3,-4,4,-2,2,-2,-2,-1,-1],[2,0,-2,0,0,0,0,0,1,0,1,0,0,0,0,0],[0,0,0,0,2,0,-2,0,0,0,0,0,1,0,1,0],[-6,6,6,-6,-4,-2,4,2,-3,3,-3,3,-2,-1,-2,-1],[4,-4,-4,4,2,2,-2,-2,2,-2,2,-2,1,1,1,1]],f=t=&gt;{let e=[];for(let s=0;s&lt;16;++s){e[s]=0;for(let r=0;r&lt;16;++r)e[s]+=u[s][r]*t[r]}return e},p=(t,e,s)=&gt;{const r=e*e,n=s*s,o=e*e*e,i=s*s*s;return t[0]+t[1]*e+t[2]*r+t[3]*o+t[4]*s+t[5]*s*e+t[6]*s*r+t[7]*s*o+t[8]*n+t[9]*n*e+t[10]*n*r+t[11]*n*o+t[12]*i+t[13]*i*e+t[14]*i*r+t[15]*i*o},y=t=&gt;{let e=[],s=[],r=[];for(let s=0;s&lt;4;++s)e[s]=[],e[s][0]=n(t[0][s],t[1][s],t[2][s],t[3][s]),e[s][1]=[],e[s][1].push(...n(...e[s][0][0])),e[s][1].push(...n(...e[s][0][1])),e[s][2]=[],e[s][2].push(...n(...e[s][1][0])),e[s][2].push(...n(...e[s][1][1])),e[s][2].push(...n(...e[s][1][2])),e[s][2].push(...n(...e[s][1][3]));for(let t=0;t&lt;8;++t){s[t]=[];for(let r=0;r&lt;4;++r)s[t][r]=[],s[t][r][0]=n(e[0][2][t][r],e[1][2][t][r],e[2][2][t][r],e[3][2][t][r]),s[t][r][1]=[],s[t][r][1].push(...n(...s[t][r][0][0])),s[t][r][1].push(...n(...s[t][r][0][1])),s[t][r][2]=[],s[t][r][2].push(...n(...s[t][r][1][0])),s[t][r][2].push(...n(...s[t][r][1][1])),s[t][r][2].push(...n(...s[t][r][1][2])),s[t][r][2].push(...n(...s[t][r][1][3]))}for(let t=0;t&lt;8;++t){r[t]=[];for(let e=0;e&lt;8;++e)r[t][e]=[],r[t][e][0]=s[t][0][2][e],r[t][e][1]=s[t][1][2][e],r[t][e][2]=s[t][2][2][e],r[t][e][3]=s[t][3][2][e]}return r};class x{constructor(t,e){this.x=t||0,this.y=e||0}toString(){return`(x=${this.x}, y=${this.y})`}clone(){return new x(this.x,this.y)}add(t){return new x(this.x+t.x,this.y+t.y)}scale(t){return void 0===t.x?new x(this.x*t,this.y*t):new x(this.x*t.x,this.y*t.y)}distSquared(t){let e=this.x-t.x,s=this.y-t.y;return e*e+s*s}transform(t){let e=this.x*t.a+this.y*t.c+t.e,s=this.x*t.b+this.y*t.d+t.f;return new x(e,s)}}class g{constructor(t,e,s,r,n,o){void 0===t?(this.a=1,this.b=0,this.c=0,this.d=1,this.e=0,this.f=0):(this.a=t,this.b=e,this.c=s,this.d=r,this.e=n,this.f=o)}toString(){return`affine: ${this.a} ${this.c} ${this.e} \n       ${this.b} ${this.d} ${this.f}`}append(t){t instanceof g||console.error(&quot;mesh.js: argument to Affine.append is not affine!&quot;);let e=this.a*t.a+this.c*t.b,s=this.b*t.a+this.d*t.b,r=this.a*t.c+this.c*t.d,n=this.b*t.c+this.d*t.d,o=this.a*t.e+this.c*t.f+this.e,i=this.b*t.e+this.d*t.f+this.f;return new g(e,s,r,n,o,i)}}class w{constructor(t,e){this.nodes=t,this.colors=e}paintCurve(t,e){if(o(this.nodes)&gt;r){const s=n(...this.nodes);let r=[[],[]],o=[[],[]];for(let t=0;t&lt;4;++t)r[0][t]=this.colors[0][t],r[1][t]=(this.colors[0][t]+this.colors[1][t])/2,o[0][t]=r[1][t],o[1][t]=this.colors[1][t];let i=new w(s[0],r),a=new w(s[1],o);i.paintCurve(t,e),a.paintCurve(t,e)}else{let s=Math.round(this.nodes[0].x);if(s&gt;=0&amp;&amp;s&lt;e){let r=4*(~~this.nodes[0].y*e+s);t[r]=Math.round(this.colors[0][0]),t[r+1]=Math.round(this.colors[0][1]),t[r+2]=Math.round(this.colors[0][2]),t[r+3]=Math.round(this.colors[0][3])}}}}class m{constructor(t,e){this.nodes=t,this.colors=e}split(){let t=[[],[],[],[]],e=[[],[],[],[]],s=[[[],[]],[[],[]]],r=[[[],[]],[[],[]]];for(let s=0;s&lt;4;++s){const r=n(this.nodes[0][s],this.nodes[1][s],this.nodes[2][s],this.nodes[3][s]);t[0][s]=r[0][0],t[1][s]=r[0][1],t[2][s]=r[0][2],t[3][s]=r[0][3],e[0][s]=r[1][0],e[1][s]=r[1][1],e[2][s]=r[1][2],e[3][s]=r[1][3]}for(let t=0;t&lt;4;++t)s[0][0][t]=this.colors[0][0][t],s[0][1][t]=this.colors[0][1][t],s[1][0][t]=(this.colors[0][0][t]+this.colors[1][0][t])/2,s[1][1][t]=(this.colors[0][1][t]+this.colors[1][1][t])/2,r[0][0][t]=s[1][0][t],r[0][1][t]=s[1][1][t],r[1][0][t]=this.colors[1][0][t],r[1][1][t]=this.colors[1][1][t];return[new m(t,s),new m(e,r)]}paint(t,e){let s,n=!1;for(let t=0;t&lt;4;++t)if((s=o([this.nodes[0][t],this.nodes[1][t],this.nodes[2][t],this.nodes[3][t]]))&gt;r){n=!0;break}if(n){let s=this.split();s[0].paint(t,e),s[1].paint(t,e)}else{new w([...this.nodes[0]],[...this.colors[0]]).paintCurve(t,e)}}}class b{constructor(t){this.readMesh(t),this.type=t.getAttribute(&quot;type&quot;)||&quot;bilinear&quot;}readMesh(t){let e=[[]],s=[[]],r=Number(t.getAttribute(&quot;x&quot;)),n=Number(t.getAttribute(&quot;y&quot;));e[0][0]=new x(r,n);let o=t.children;for(let t=0,r=o.length;t&lt;r;++t){e[3*t+1]=[],e[3*t+2]=[],e[3*t+3]=[],s[t+1]=[];let r=o[t].children;for(let n=0,o=r.length;n&lt;o;++n){let o=r[n].children;for(let r=0,i=o.length;r&lt;i;++r){let i=r;0!==t&amp;&amp;++i;let h,d=o[r].getAttribute(&quot;path&quot;),c=&quot;l&quot;;null!=d&amp;&amp;(c=(h=d.match(/\s*([lLcC])\s*(.*)/))[1]);let u=l(h[2]);switch(c){case&quot;l&quot;:0===i?(e[3*t][3*n+3]=u[0].add(e[3*t][3*n]),e[3*t][3*n+1]=a(e[3*t][3*n],e[3*t][3*n+3]),e[3*t][3*n+2]=a(e[3*t][3*n+3],e[3*t][3*n])):1===i?(e[3*t+3][3*n+3]=u[0].add(e[3*t][3*n+3]),e[3*t+1][3*n+3]=a(e[3*t][3*n+3],e[3*t+3][3*n+3]),e[3*t+2][3*n+3]=a(e[3*t+3][3*n+3],e[3*t][3*n+3])):2===i?(0===n&amp;&amp;(e[3*t+3][3*n+0]=u[0].add(e[3*t+3][3*n+3])),e[3*t+3][3*n+1]=a(e[3*t+3][3*n],e[3*t+3][3*n+3]),e[3*t+3][3*n+2]=a(e[3*t+3][3*n+3],e[3*t+3][3*n])):(e[3*t+1][3*n]=a(e[3*t][3*n],e[3*t+3][3*n]),e[3*t+2][3*n]=a(e[3*t+3][3*n],e[3*t][3*n]));break;case&quot;L&quot;:0===i?(e[3*t][3*n+3]=u[0],e[3*t][3*n+1]=a(e[3*t][3*n],e[3*t][3*n+3]),e[3*t][3*n+2]=a(e[3*t][3*n+3],e[3*t][3*n])):1===i?(e[3*t+3][3*n+3]=u[0],e[3*t+1][3*n+3]=a(e[3*t][3*n+3],e[3*t+3][3*n+3]),e[3*t+2][3*n+3]=a(e[3*t+3][3*n+3],e[3*t][3*n+3])):2===i?(0===n&amp;&amp;(e[3*t+3][3*n+0]=u[0]),e[3*t+3][3*n+1]=a(e[3*t+3][3*n],e[3*t+3][3*n+3]),e[3*t+3][3*n+2]=a(e[3*t+3][3*n+3],e[3*t+3][3*n])):(e[3*t+1][3*n]=a(e[3*t][3*n],e[3*t+3][3*n]),e[3*t+2][3*n]=a(e[3*t+3][3*n],e[3*t][3*n]));break;case&quot;c&quot;:0===i?(e[3*t][3*n+1]=u[0].add(e[3*t][3*n]),e[3*t][3*n+2]=u[1].add(e[3*t][3*n]),e[3*t][3*n+3]=u[2].add(e[3*t][3*n])):1===i?(e[3*t+1][3*n+3]=u[0].add(e[3*t][3*n+3]),e[3*t+2][3*n+3]=u[1].add(e[3*t][3*n+3]),e[3*t+3][3*n+3]=u[2].add(e[3*t][3*n+3])):2===i?(e[3*t+3][3*n+2]=u[0].add(e[3*t+3][3*n+3]),e[3*t+3][3*n+1]=u[1].add(e[3*t+3][3*n+3]),0===n&amp;&amp;(e[3*t+3][3*n+0]=u[2].add(e[3*t+3][3*n+3]))):(e[3*t+2][3*n]=u[0].add(e[3*t+3][3*n]),e[3*t+1][3*n]=u[1].add(e[3*t+3][3*n]));break;case&quot;C&quot;:0===i?(e[3*t][3*n+1]=u[0],e[3*t][3*n+2]=u[1],e[3*t][3*n+3]=u[2]):1===i?(e[3*t+1][3*n+3]=u[0],e[3*t+2][3*n+3]=u[1],e[3*t+3][3*n+3]=u[2]):2===i?(e[3*t+3][3*n+2]=u[0],e[3*t+3][3*n+1]=u[1],0===n&amp;&amp;(e[3*t+3][3*n+0]=u[2])):(e[3*t+2][3*n]=u[0],e[3*t+1][3*n]=u[1]);break;default:console.error(&quot;mesh.js: &quot;+c+&quot; invalid path type.&quot;)}if(0===t&amp;&amp;0===n||r&gt;0){let e=window.getComputedStyle(o[r]).stopColor.match(/^rgb\s*\(\s*(\d+)\s*,\s*(\d+)\s*,\s*(\d+)\s*\)$/i),a=window.getComputedStyle(o[r]).stopOpacity,h=255;a&amp;&amp;(h=Math.floor(255*a)),e&amp;&amp;(0===i?(s[t][n]=[],s[t][n][0]=Math.floor(e[1]),s[t][n][1]=Math.floor(e[2]),s[t][n][2]=Math.floor(e[3]),s[t][n][3]=h):1===i?(s[t][n+1]=[],s[t][n+1][0]=Math.floor(e[1]),s[t][n+1][1]=Math.floor(e[2]),s[t][n+1][2]=Math.floor(e[3]),s[t][n+1][3]=h):2===i?(s[t+1][n+1]=[],s[t+1][n+1][0]=Math.floor(e[1]),s[t+1][n+1][1]=Math.floor(e[2]),s[t+1][n+1][2]=Math.floor(e[3]),s[t+1][n+1][3]=h):3===i&amp;&amp;(s[t+1][n]=[],s[t+1][n][0]=Math.floor(e[1]),s[t+1][n][1]=Math.floor(e[2]),s[t+1][n][2]=Math.floor(e[3]),s[t+1][n][3]=h))}}e[3*t+1][3*n+1]=new x,e[3*t+1][3*n+2]=new x,e[3*t+2][3*n+1]=new x,e[3*t+2][3*n+2]=new x,e[3*t+1][3*n+1].x=(-4*e[3*t][3*n].x+6*(e[3*t][3*n+1].x+e[3*t+1][3*n].x)+-2*(e[3*t][3*n+3].x+e[3*t+3][3*n].x)+3*(e[3*t+3][3*n+1].x+e[3*t+1][3*n+3].x)+-1*e[3*t+3][3*n+3].x)/9,e[3*t+1][3*n+2].x=(-4*e[3*t][3*n+3].x+6*(e[3*t][3*n+2].x+e[3*t+1][3*n+3].x)+-2*(e[3*t][3*n].x+e[3*t+3][3*n+3].x)+3*(e[3*t+3][3*n+2].x+e[3*t+1][3*n].x)+-1*e[3*t+3][3*n].x)/9,e[3*t+2][3*n+1].x=(-4*e[3*t+3][3*n].x+6*(e[3*t+3][3*n+1].x+e[3*t+2][3*n].x)+-2*(e[3*t+3][3*n+3].x+e[3*t][3*n].x)+3*(e[3*t][3*n+1].x+e[3*t+2][3*n+3].x)+-1*e[3*t][3*n+3].x)/9,e[3*t+2][3*n+2].x=(-4*e[3*t+3][3*n+3].x+6*(e[3*t+3][3*n+2].x+e[3*t+2][3*n+3].x)+-2*(e[3*t+3][3*n].x+e[3*t][3*n+3].x)+3*(e[3*t][3*n+2].x+e[3*t+2][3*n].x)+-1*e[3*t][3*n].x)/9,e[3*t+1][3*n+1].y=(-4*e[3*t][3*n].y+6*(e[3*t][3*n+1].y+e[3*t+1][3*n].y)+-2*(e[3*t][3*n+3].y+e[3*t+3][3*n].y)+3*(e[3*t+3][3*n+1].y+e[3*t+1][3*n+3].y)+-1*e[3*t+3][3*n+3].y)/9,e[3*t+1][3*n+2].y=(-4*e[3*t][3*n+3].y+6*(e[3*t][3*n+2].y+e[3*t+1][3*n+3].y)+-2*(e[3*t][3*n].y+e[3*t+3][3*n+3].y)+3*(e[3*t+3][3*n+2].y+e[3*t+1][3*n].y)+-1*e[3*t+3][3*n].y)/9,e[3*t+2][3*n+1].y=(-4*e[3*t+3][3*n].y+6*(e[3*t+3][3*n+1].y+e[3*t+2][3*n].y)+-2*(e[3*t+3][3*n+3].y+e[3*t][3*n].y)+3*(e[3*t][3*n+1].y+e[3*t+2][3*n+3].y)+-1*e[3*t][3*n+3].y)/9,e[3*t+2][3*n+2].y=(-4*e[3*t+3][3*n+3].y+6*(e[3*t+3][3*n+2].y+e[3*t+2][3*n+3].y)+-2*(e[3*t+3][3*n].y+e[3*t][3*n+3].y)+3*(e[3*t][3*n+2].y+e[3*t+2][3*n].y)+-1*e[3*t][3*n].y)/9}}this.nodes=e,this.colors=s}paintMesh(t,e){let s=(this.nodes.length-1)/3,r=(this.nodes[0].length-1)/3;if(&quot;bilinear&quot;===this.type||s&lt;2||r&lt;2){let n;for(let o=0;o&lt;s;++o)for(let s=0;s&lt;r;++s){let r=[];for(let t=3*o,e=3*o+4;t&lt;e;++t)r.push(this.nodes[t].slice(3*s,3*s+4));let i=[];i.push(this.colors[o].slice(s,s+2)),i.push(this.colors[o+1].slice(s,s+2)),(n=new m(r,i)).paint(t,e)}}else{let n,o,a,h,l,d,u;const x=s,g=r;s++,r++;let w=new Array(s);for(let t=0;t&lt;s;++t){w[t]=new Array(r);for(let e=0;e&lt;r;++e)w[t][e]=[],w[t][e][0]=this.nodes[3*t][3*e],w[t][e][1]=this.colors[t][e]}for(let t=0;t&lt;s;++t)for(let e=0;e&lt;r;++e)0!==t&amp;&amp;t!==x&amp;&amp;(n=i(w[t-1][e][0],w[t][e][0]),o=i(w[t+1][e][0],w[t][e][0]),w[t][e][2]=c(w[t-1][e][1],w[t][e][1],w[t+1][e][1],n,o)),0!==e&amp;&amp;e!==g&amp;&amp;(n=i(w[t][e-1][0],w[t][e][0]),o=i(w[t][e+1][0],w[t][e][0]),w[t][e][3]=c(w[t][e-1][1],w[t][e][1],w[t][e+1][1],n,o));for(let t=0;t&lt;r;++t){w[0][t][2]=[],w[x][t][2]=[];for(let e=0;e&lt;4;++e)n=i(w[1][t][0],w[0][t][0]),o=i(w[x][t][0],w[x-1][t][0]),w[0][t][2][e]=n&gt;0?2*(w[1][t][1][e]-w[0][t][1][e])/n-w[1][t][2][e]:0,w[x][t][2][e]=o&gt;0?2*(w[x][t][1][e]-w[x-1][t][1][e])/o-w[x-1][t][2][e]:0}for(let t=0;t&lt;s;++t){w[t][0][3]=[],w[t][g][3]=[];for(let e=0;e&lt;4;++e)n=i(w[t][1][0],w[t][0][0]),o=i(w[t][g][0],w[t][g-1][0]),w[t][0][3][e]=n&gt;0?2*(w[t][1][1][e]-w[t][0][1][e])/n-w[t][1][3][e]:0,w[t][g][3][e]=o&gt;0?2*(w[t][g][1][e]-w[t][g-1][1][e])/o-w[t][g-1][3][e]:0}for(let s=0;s&lt;x;++s)for(let r=0;r&lt;g;++r){let n=i(w[s][r][0],w[s+1][r][0]),o=i(w[s][r+1][0],w[s+1][r+1][0]),c=i(w[s][r][0],w[s][r+1][0]),x=i(w[s+1][r][0],w[s+1][r+1][0]),g=[[],[],[],[]];for(let t=0;t&lt;4;++t){(d=[])[0]=w[s][r][1][t],d[1]=w[s+1][r][1][t],d[2]=w[s][r+1][1][t],d[3]=w[s+1][r+1][1][t],d[4]=w[s][r][2][t]*n,d[5]=w[s+1][r][2][t]*n,d[6]=w[s][r+1][2][t]*o,d[7]=w[s+1][r+1][2][t]*o,d[8]=w[s][r][3][t]*c,d[9]=w[s+1][r][3][t]*x,d[10]=w[s][r+1][3][t]*c,d[11]=w[s+1][r+1][3][t]*x,d[12]=0,d[13]=0,d[14]=0,d[15]=0,u=f(d);for(let e=0;e&lt;9;++e){g[t][e]=[];for(let s=0;s&lt;9;++s)g[t][e][s]=p(u,e/8,s/8),g[t][e][s]&gt;255?g[t][e][s]=255:g[t][e][s]&lt;0&amp;&amp;(g[t][e][s]=0)}}h=[];for(let t=3*s,e=3*s+4;t&lt;e;++t)h.push(this.nodes[t].slice(3*r,3*r+4));l=y(h);for(let s=0;s&lt;8;++s)for(let r=0;r&lt;8;++r)(a=new m(l[s][r],[[[g[0][s][r],g[1][s][r],g[2][s][r],g[3][s][r]],[g[0][s][r+1],g[1][s][r+1],g[2][s][r+1],g[3][s][r+1]]],[[g[0][s+1][r],g[1][s+1][r],g[2][s+1][r],g[3][s+1][r]],[g[0][s+1][r+1],g[1][s+1][r+1],g[2][s+1][r+1],g[3][s+1][r+1]]]])).paint(t,e)}}}transform(t){if(t instanceof x)for(let e=0,s=this.nodes.length;e&lt;s;++e)for(let s=0,r=this.nodes[0].length;s&lt;r;++s)this.nodes[e][s]=this.nodes[e][s].add(t);else if(t instanceof g)for(let e=0,s=this.nodes.length;e&lt;s;++e)for(let s=0,r=this.nodes[0].length;s&lt;r;++s)this.nodes[e][s]=this.nodes[e][s].transform(t)}scale(t){for(let e=0,s=this.nodes.length;e&lt;s;++e)for(let s=0,r=this.nodes[0].length;s&lt;r;++s)this.nodes[e][s]=this.nodes[e][s].scale(t)}}document.querySelectorAll(&quot;rect,circle,ellipse,path,text&quot;).forEach((r,n)=&gt;{let o=r.getAttribute(&quot;id&quot;);o||(o=&quot;patchjs_shape&quot;+n,r.setAttribute(&quot;id&quot;,o));const i=r.style.fill.match(/^url\(\s*&quot;?\s*#([^\s&quot;]+)&quot;?\s*\)/),a=r.style.stroke.match(/^url\(\s*&quot;?\s*#([^\s&quot;]+)&quot;?\s*\)/);if(i&amp;&amp;i[1]){const a=document.getElementById(i[1]);if(a&amp;&amp;&quot;meshgradient&quot;===a.nodeName){const i=r.getBBox();let l=document.createElementNS(s,&quot;canvas&quot;);d(l,{width:i.width,height:i.height});const c=l.getContext(&quot;2d&quot;);let u=c.createImageData(i.width,i.height);const f=new b(a);&quot;objectBoundingBox&quot;===a.getAttribute(&quot;gradientUnits&quot;)&amp;&amp;f.scale(new x(i.width,i.height));const p=a.getAttribute(&quot;gradientTransform&quot;);null!=p&amp;&amp;f.transform(h(p)),&quot;userSpaceOnUse&quot;===a.getAttribute(&quot;gradientUnits&quot;)&amp;&amp;f.transform(new x(-i.x,-i.y)),f.paintMesh(u.data,l.width),c.putImageData(u,0,0);const y=document.createElementNS(t,&quot;image&quot;);d(y,{width:i.width,height:i.height,x:i.x,y:i.y});let g=l.toDataURL();y.setAttributeNS(e,&quot;xlink:href&quot;,g),r.parentNode.insertBefore(y,r),r.style.fill=&quot;none&quot;;const w=document.createElementNS(t,&quot;use&quot;);w.setAttributeNS(e,&quot;xlink:href&quot;,&quot;#&quot;+o);const m=&quot;patchjs_clip&quot;+n,M=document.createElementNS(t,&quot;clipPath&quot;);M.setAttribute(&quot;id&quot;,m),M.appendChild(w),r.parentElement.insertBefore(M,r),y.setAttribute(&quot;clip-path&quot;,&quot;url(#&quot;+m+&quot;)&quot;),u=null,l=null,g=null}}if(a&amp;&amp;a[1]){const o=document.getElementById(a[1]);if(o&amp;&amp;&quot;meshgradient&quot;===o.nodeName){const i=parseFloat(r.style.strokeWidth.slice(0,-2))*(parseFloat(r.style.strokeMiterlimit)||parseFloat(r.getAttribute(&quot;stroke-miterlimit&quot;))||1),a=r.getBBox(),l=Math.trunc(a.width+i),c=Math.trunc(a.height+i),u=Math.trunc(a.x-i/2),f=Math.trunc(a.y-i/2);let p=document.createElementNS(s,&quot;canvas&quot;);d(p,{width:l,height:c});const y=p.getContext(&quot;2d&quot;);let g=y.createImageData(l,c);const w=new b(o);&quot;objectBoundingBox&quot;===o.getAttribute(&quot;gradientUnits&quot;)&amp;&amp;w.scale(new x(l,c));const m=o.getAttribute(&quot;gradientTransform&quot;);null!=m&amp;&amp;w.transform(h(m)),&quot;userSpaceOnUse&quot;===o.getAttribute(&quot;gradientUnits&quot;)&amp;&amp;w.transform(new x(-u,-f)),w.paintMesh(g.data,p.width),y.putImageData(g,0,0);const M=document.createElementNS(t,&quot;image&quot;);d(M,{width:l,height:c,x:0,y:0});let S=p.toDataURL();M.setAttributeNS(e,&quot;xlink:href&quot;,S);const k=&quot;pattern_clip&quot;+n,A=document.createElementNS(t,&quot;pattern&quot;);d(A,{id:k,patternUnits:&quot;userSpaceOnUse&quot;,width:l,height:c,x:u,y:f}),A.appendChild(M),o.parentNode.appendChild(A),r.style.stroke=&quot;url(#&quot;+k+&quot;)&quot;,g=null,p=null,S=null}}})}();
</script>
</svg>
